<?xml version="1.0" encoding="UTF-8" standalone="no"?>
<svg
   version="1.1"
   x="0"
   y="0"
   width="534.5835"
   height="140.625"
   viewBox="0 0 534.58351 140.625"
   enable-background="new 0 0 595.28 841.89"
   xml:space="preserve"
   id="svg24"
   sodipodi:docname="dependency-check.svg"
   inkscape:version="1.1.2 (0a00cf5339, 2022-02-04)"
   xmlns:inkscape="http://www.inkscape.org/namespaces/inkscape"
   xmlns:sodipodi="http://sodipodi.sourceforge.net/DTD/sodipodi-0.dtd"
   xmlns="http://www.w3.org/2000/svg"
   xmlns:svg="http://www.w3.org/2000/svg"><defs
     id="defs28" /><sodipodi:namedview
     id="namedview26"
     pagecolor="#ffffff"
     bordercolor="#666666"
     borderopacity="1.0"
     inkscape:pageshadow="2"
     inkscape:pageopacity="0.0"
     inkscape:pagecheckerboard="0"
     showgrid="false"
     inkscape:zoom="3.0009084"
     inkscape:cx="222.76588"
     inkscape:cy="70.478659"
     inkscape:window-width="3440"
     inkscape:window-height="1330"
     inkscape:window-x="0"
     inkscape:window-y="507"
     inkscape:window-maximized="1"
     inkscape:current-layer="svg24"
     fit-margin-top="0"
     fit-margin-left="0"
     fit-margin-right="0"
     fit-margin-bottom="0" /><style
     id="style2">.s0{fill:#231f20;opacity:0.5;}.s1{fill:#f78d0a;}.s2{fill:#231f20;opacity:0.3;}</style><g
     transform="translate(-79.609,-311.899)"
     id="g22"><path
       d="m 222.84471,410.66621 c -3.42191,0 -7.08881,-0.3302 -8.77931,-0.61928 -0.7836,-0.12314 -1.19592,-0.49434 -1.19592,-1.44238 V 381.3583 c 0,-0.94775 0.41232,-1.31885 1.19592,-1.44244 1.6905,-0.28759 5.35886,-0.61803 8.77931,-0.61803 8.20274,0 13.14904,4.32902 13.14904,13.02606 v 5.31639 c -9.9e-4,8.69718 -4.94769,13.02593 -13.14904,13.02593 z m 6.1,-18.34232 c 0,-5.56398 -2.39141,-7.04896 -6.10127,-7.04896 -1.03019,0 -2.34916,0.041 -2.92608,0.0818 v 19.24906 c 0.57692,0.0403 1.89589,0.0819 2.92608,0.0819 3.70986,0 6.10127,-1.48355 6.10127,-7.04947 z m 29.92535,17.80666 c -1.44233,0.20546 -3.545,0.53566 -7.9955,0.53566 -5.31817,0 -10.01657,-1.36023 -10.01657,-8.86295 v -13.68475 c 0,-7.50265 4.74015,-8.82068 10.05727,-8.82068 4.45237,0 6.51247,0.33044 7.95636,0.53589 0.5767,0.0818 0.82462,0.28768 0.82462,0.82467 v 3.83271 c 0,0.45351 -0.37119,0.82486 -0.82462,0.82486 h -8.36695 c -1.93673,0 -2.63901,0.65875 -2.63901,2.80255 v 3.75064 h 10.67519 c 0.45398,0 0.82538,0.3713 0.82538,0.82467 v 3.91491 c 0,0.45345 -0.3714,0.82473 -0.82538,0.82473 h -10.67519 v 4.3685 c 0,2.14378 0.70228,2.80261 2.63901,2.80261 h 8.36695 c 0.45343,0 0.82462,0.37122 0.82462,0.82459 v 3.83292 c 0,0.53673 -0.24792,0.78485 -0.82618,0.86847 z m 16.3247,-10.55337 c -0.98935,0 -2.30848,-0.0833 -3.33971,-0.12375 v 10.01631 c 0,0.4533 -0.37123,0.82452 -0.82489,0.82452 h -5.31752 c -0.4536,0 -0.82472,-0.33011 -0.82472,-0.78347 v -27.69953 c 0,-1.4014 0.57682,-1.77264 1.85476,-1.97815 2.10283,-0.33012 5.40003,-0.53577 8.36715,-0.53577 6.22316,0 12.3655,2.18502 12.3655,9.93431 v 0.37115 c 0.001,7.70687 -6.13989,9.9739 -12.28057,9.9739 z m 5.27638,-10.34492 c 0,-2.92734 -1.81356,-4.08077 -5.27638,-4.08077 -0.57686,0 -2.84397,0.0818 -3.33971,0.12379 v 8.40775 c 0.45317,0.0401 2.88493,0.082 3.33971,0.082 3.66827,0 5.27638,-1.36041 5.27638,-4.1631 z m 29.14213,20.89829 c -1.44371,0.20546 -3.54516,0.53566 -7.99581,0.53566 -5.31762,0 -10.01629,-1.36023 -10.01629,-8.86295 v -13.68475 c 0,-7.50265 4.73986,-8.82068 10.05734,-8.82068 4.45191,0 6.51232,0.33044 7.95636,0.53589 0.57607,0.0818 0.82436,0.28768 0.82436,0.82467 v 3.83271 c 0,0.45351 -0.37082,0.82486 -0.82436,0.82486 h -8.36715 c -1.93689,0 -2.63847,0.65875 -2.63847,2.80255 v 3.75064 h 10.67519 c 0.45499,0 0.82591,0.3713 0.82591,0.82467 v 3.91491 c 0,0.45345 -0.37092,0.82473 -0.82591,0.82473 h -10.67519 v 4.3685 c 0,2.14378 0.70158,2.80261 2.63847,2.80261 h 8.36715 c 0.45354,0 0.82436,0.37122 0.82436,0.82459 v 3.83292 c -0.001,0.53673 -0.2491,0.78485 -0.82596,0.86847 z m 28.68858,0.16435 h -4.03809 c -0.86738,0 -1.48491,-0.16435 -2.14271,-1.278 l -9.3984,-16.24094 c -0.16433,-0.24656 -0.24805,-0.33006 -0.37161,-0.33006 -0.12332,0 -0.20492,0.0833 -0.20492,0.33006 v 16.69436 c 0,0.4533 -0.37115,0.82458 -0.82602,0.82458 h -4.86457 c -0.45182,0 -0.8244,-0.37128 -0.8244,-0.82458 V 381.235 c 0,-0.86569 0.70093,-1.56569 1.56704,-1.56569 h 4.16423 c 0.82477,0 1.2357,0.41235 1.73166,1.2781 l 9.7683,16.98195 c 0.16387,0.24784 0.20523,0.33033 0.32857,0.33033 0.0829,0 0.20545,-0.0836 0.20545,-0.37137 v -17.43544 c 0,-0.45324 0.37097,-0.78357 0.82618,-0.78357 h 4.86297 c 0.45477,0 0.82601,0.33033 0.82601,0.78357 v 28.27627 c -9.9e-4,0.86441 -0.74419,1.56575 -1.60969,1.56575 z m 17.35613,0.37131 c -3.42213,0 -7.09045,-0.3302 -8.77947,-0.61928 -0.78334,-0.12314 -1.19587,-0.49434 -1.19587,-1.44238 V 381.3583 c 0,-0.94775 0.41253,-1.31885 1.19587,-1.44244 1.68902,-0.28759 5.35734,-0.61803 8.77947,-0.61803 8.20105,0 13.14911,4.32902 13.14911,13.02606 v 5.31639 c 0,8.69718 -4.9466,13.02593 -13.14911,13.02593 z m 6.09988,-18.34232 c 0,-5.56398 -2.39061,-7.04896 -6.09988,-7.04896 -1.03171,0 -2.35082,0.041 -2.92746,0.0818 v 19.24906 c 0.57664,0.0403 1.89575,0.0819 2.92746,0.0819 3.70927,0 6.09988,-1.48355 6.09988,-7.04947 z m 29.92551,17.80666 c -1.44244,0.20546 -3.54378,0.53566 -7.99592,0.53566 -5.31758,0 -10.01602,-1.36023 -10.01602,-8.86295 v -13.68475 c 0,-7.50265 4.74102,-8.82068 10.05849,-8.82068 4.45076,0 6.51248,0.33044 7.95491,0.53589 0.57773,0.0818 0.82579,0.28768 0.82579,0.82467 v 3.83271 c 0,0.45351 -0.3707,0.82486 -0.82579,0.82486 h -8.36579 c -1.9382,0 -2.63831,0.65875 -2.63831,2.80255 v 3.75064 h 10.67519 c 0.45374,0 0.8247,0.3713 0.8247,0.82467 v 3.91491 c 0,0.45345 -0.37096,0.82473 -0.8247,0.82473 h -10.67519 v 4.3685 c 0,2.14378 0.70011,2.80261 2.63831,2.80261 h 8.36579 c 0.45343,0 0.82579,0.37122 0.82579,0.82459 v 3.83292 c -9.3e-4,0.53673 -0.24941,0.78485 -0.82725,0.86847 z m 28.68955,0.16435 h -4.03906 c -0.86591,0 -1.4837,-0.16435 -2.14265,-1.278 l -9.39719,-16.24094 c -0.16555,-0.24656 -0.24791,-0.33006 -0.37137,-0.33006 -0.12262,0 -0.2051,0.0833 -0.2051,0.33006 v 16.69436 c 0,0.4533 -0.37146,0.82458 -0.82477,0.82458 h -4.8643 c -0.45328,0 -0.8245,-0.37128 -0.8245,-0.82458 V 381.235 c 0,-0.86569 0.701,-1.56569 1.56687,-1.56569 h 4.16293 c 0.82498,0 1.23564,0.41235 1.73162,1.2781 l 9.76991,16.98195 c 0.16401,0.24784 0.20518,0.33033 0.32846,0.33033 0.0839,0 0.20544,-0.0836 0.20544,-0.37137 v -17.43544 c 0,-0.45324 0.37138,-0.78357 0.8248,-0.78357 h 4.86412 c 0.45343,0 0.82481,0.33033 0.82481,0.78357 v 28.27627 c -10e-4,0.86441 -0.74388,1.56575 -1.61002,1.56575 z m 25.02246,-0.33012 c -0.86623,0.28759 -3.25799,0.70143 -6.14112,0.70143 -6.26603,0 -12.20144,-3.29749 -12.20144,-13.10833 v -5.19418 c 0,-9.81087 5.93541,-13.06698 12.20144,-13.06698 2.88313,0 5.27613,0.41233 6.14112,0.70128 0.57607,0.16449 0.90513,0.33027 0.90513,0.90687 v 3.99864 c 0,0.49427 -0.2467,0.82471 -0.78277,0.82471 -0.0396,0 -0.0821,0 -0.12243,0 -1.56749,-0.12344 -3.83475,-0.33044 -6.10165,-0.33044 -2.8441,0 -5.10949,1.4838 -5.10949,6.96592 v 5.19418 c 0,5.48238 2.26539,6.96591 5.10949,6.96591 2.2669,0 4.53598,-0.2056 6.10165,-0.32884 0.0386,0 0.0812,0 0.12243,0 0.53745,0 0.78277,0.32884 0.78277,0.82487 v 3.99844 c 0,0.5753 -0.32906,0.78055 -0.90513,0.94652 z m 28.35812,-29.38996 -6.22511,14.26271 c -0.82405,1.89581 -1.68871,2.76157 -2.67892,3.17403 v 11.45876 c 0,0.4533 -0.37147,0.82458 -0.82473,0.82458 h -5.39843 c -0.4536,0 -0.82623,-0.37128 -0.82623,-0.82458 v -11.45876 c -0.989,-0.41246 -1.89564,-1.27822 -2.71894,-3.17403 l -6.22476,-14.26271 c -0.0398,-0.0818 -0.0398,-0.20551 -0.0398,-0.28778 0,-0.33008 0.24791,-0.61773 0.65904,-0.61773 h 5.93561 c 0.41209,0 0.70102,0.33033 0.8244,0.7 l 4.45182,11.62301 c 0.20563,0.53708 0.33023,0.61935 0.61796,0.61935 0.28909,0 0.4138,-0.0818 0.61934,-0.61935 l 4.45051,-11.62301 c 0.12459,-0.37131 0.41218,-0.7 0.82604,-0.7 h 5.93548 c 0.412,0 0.65905,0.28765 0.65905,0.61773 0,0.0822 0,0.20558 -0.0399,0.28778 z m 11.13,19.57918 h -7.99591 c -0.45335,0 -0.82469,-0.28765 -0.82469,-0.74252 v -3.29728 c 0,-0.45322 0.37134,-0.78341 0.82469,-0.78341 h 7.99591 c 0.45317,0 0.82624,0.33019 0.82624,0.78341 v 3.29728 c 0,0.45487 -0.37307,0.74252 -0.82624,0.74252 z"
       class="s0"
       id="path4"
       style="fill:#cfcfcf;fill-opacity:1;stroke-width:1.36989" /><path
       d="m 507.63805,409.96478 c -0.86612,0.28759 -3.25785,0.70143 -6.14117,0.70143 -6.26552,0 -12.20125,-3.29749 -12.20125,-13.10833 v -5.19418 c 0,-9.81087 5.93573,-13.06698 12.20125,-13.06698 2.88332,0 5.27665,0.41233 6.14117,0.70128 0.57648,0.16449 0.90513,0.33027 0.90513,0.90687 v 3.99864 c 0,0.49427 -0.24646,0.82471 -0.78182,0.82471 -0.0398,0 -0.0836,0 -0.12321,0 -1.56721,-0.12344 -3.83439,-0.33044 -6.10138,-0.33044 -2.84426,0 -5.10945,1.4838 -5.10945,6.96592 v 5.19418 c 0,5.48238 2.26519,6.96591 5.10945,6.96591 2.26699,0 4.53567,-0.2056 6.10138,-0.32884 0.0373,0 0.0823,0 0.12321,0 0.53664,0 0.78182,0.32884 0.78182,0.82487 v 3.99844 c 0,0.5753 -0.32978,0.78055 -0.90513,0.94652 z m 28.93656,0.33012 h -5.39875 c -0.45338,0 -0.82452,-0.37128 -0.82452,-0.82458 v -11.91244 h -10.18235 v 11.91244 c 0,0.4533 -0.37085,0.82458 -0.82441,0.82458 h -5.40007 c -0.45317,0 -0.82429,-0.37128 -0.82429,-0.82458 v -29.01874 c 0,-0.45358 0.37112,-0.78377 0.82429,-0.78377 h 5.40007 c 0.45356,0 0.82441,0.33019 0.82441,0.78377 v 10.96433 h 10.18235 v -10.96433 c 0,-0.45358 0.37114,-0.78377 0.82452,-0.78377 h 5.39875 c 0.45308,0 0.82406,0.33019 0.82406,0.78377 v 29.01874 c -8.6e-4,0.4533 -0.37098,0.82458 -0.82406,0.82458 z m 24.48564,-0.16435 c -1.44385,0.20546 -3.54506,0.53566 -7.99705,0.53566 -5.31762,0 -10.01635,-1.36023 -10.01635,-8.86295 v -13.68475 c 0,-7.50265 4.74108,-8.82068 10.05893,-8.82068 4.45063,0 6.51213,0.33044 7.95596,0.53589 0.57653,0.0818 0.82484,0.28768 0.82484,0.82467 v 3.83271 c 0,0.45351 -0.37157,0.82486 -0.82484,0.82486 h -8.36682 c -1.9384,0 -2.63836,0.65875 -2.63836,2.80255 v 3.75064 h 10.67519 c 0.45327,0 0.8244,0.3713 0.8244,0.82467 v 3.91491 c 0,0.45345 -0.37113,0.82473 -0.8244,0.82473 h -10.67519 v 4.3685 c 0,2.14378 0.69996,2.80261 2.63836,2.80261 h 8.36682 c 0.45193,0 0.82484,0.37122 0.82484,0.82459 v 3.83292 c -10e-4,0.53673 -0.25092,0.78485 -0.82633,0.86847 z m 23.66024,-0.16577 c -0.86603,0.28759 -3.25776,0.70143 -6.14122,0.70143 -6.26581,0 -12.20112,-3.29749 -12.20112,-13.10833 v -5.19418 c 0,-9.81087 5.93531,-13.06698 12.20112,-13.06698 2.88346,0 5.27657,0.41233 6.14122,0.70128 0.57663,0.16449 0.90524,0.33027 0.90524,0.90687 v 3.99864 c 0,0.49427 -0.24694,0.82471 -0.78214,0.82471 -0.0392,0 -0.0841,0 -0.12315,0 -1.56712,-0.12344 -3.8344,-0.33044 -6.10133,-0.33044 -2.84389,0 -5.10955,1.4838 -5.10955,6.96592 v 5.19418 c 0,5.48238 2.26566,6.96591 5.10955,6.96591 2.26693,0 4.53555,-0.2056 6.10133,-0.32884 0.039,0 0.082,0 0.12315,0 0.53692,0 0.78214,0.32884 0.78214,0.82487 v 3.99844 c 0,0.5753 -0.32861,0.78055 -0.90524,0.94652 z m 29.26661,-29.26522 -9.81089,13.93116 9.85208,14.79844 c 0.12344,0.1644 0.16422,0.33004 0.16422,0.45335 0,0.24804 -0.20541,0.41239 -0.57798,0.41239 h -7.08858 c -0.49487,0 -0.70201,-0.24797 -0.90735,-0.57693 l -8.36678,-13.60234 v 13.35606 c 0,0.45335 -0.37123,0.82452 -0.82473,0.82452 h -5.39987 c -0.45366,0 -0.82489,-0.37117 -0.82489,-0.82452 v -29.01881 c 0,-0.45324 0.37123,-0.78357 0.82489,-0.78357 h 5.39987 c 0.4535,0 0.82473,0.33033 0.82473,0.78357 v 13.10669 l 9.06836,-13.39578 c 0.20577,-0.33007 0.4517,-0.49448 0.9053,-0.49448 h 6.30682 c 0.45342,0 0.6594,0.20545 0.6594,0.45344 10e-4,0.16429 -0.0807,0.36987 -0.2046,0.57681 z"
       fill="#f78d0a"
       id="path6"
       style="stroke-width:1.36989" /><path
       d="m 147.555,325.58 v -13.681 c -34.422,5.059 -61.779,31.82 -67.693,65.957 h 13.769 c 5.594,-26.651 26.983,-47.489 53.924,-52.276 z"
       class="s0"
       id="path8" /><path
       d="M 147.555,338.005 V 325.58 c -26.941,4.786 -48.33,25.625 -53.924,52.276 h 12.512 c 5.175,-19.907 21.216,-35.427 41.412,-39.851 z"
       class="s2"
       id="path10" /><path
       d="m 186.395,372.292 -10.207,10.23 c 0.299,0.581 0.641,1.122 0.89,1.746 0.94,2.352 1.411,4.925 1.411,7.702 v 0.183 c 0,2.842 -0.472,5.41 -1.411,7.703 -0.935,2.303 -2.235,4.291 -3.894,5.982 -1.664,1.696 -3.674,2.99 -6.024,3.894 -2.361,0.906 -4.961,1.362 -7.8,1.362 h -10.78 v -0.902 l -13.469,13.502 h 24.249 c 4.955,0 9.499,-0.818 13.642,-2.447 4.137,-1.635 7.704,-3.864 10.691,-6.714 2.995,-2.836 5.303,-6.184 6.935,-10.058 1.632,-3.865 2.448,-8.033 2.448,-12.506 v -0.176 c 0,-4.472 -0.816,-8.626 -2.448,-12.467 -1.095,-2.575 -2.525,-4.906 -4.234,-7.035 z"
       fill="#f78d0a"
       id="path12" /><path
       d="m 148.581,372.85 h 10.78 c 2.837,0 5.438,0.467 7.8,1.405 2.35,0.937 4.36,2.253 6.024,3.94 1.217,1.242 2.175,2.728 3.004,4.328 l 10.207,-10.23 c -0.836,-1.04 -1.717,-2.046 -2.701,-2.979 -2.987,-2.835 -6.554,-5.054 -10.691,-6.661 -4.142,-1.599 -8.686,-2.4 -13.642,-2.4 h -24.74 v 63.444 h 0.491 l 13.469,-13.502 v -37.343 z"
       style="opacity:0.7;fill:#f78d0a"
       id="path14" /><path
       d="m 173.772,326.093 v 12.546 c 11.174,3.022 20.915,9.491 28.067,18.173 l 8.652,-8.674 c -9.346,-10.95 -22.146,-18.865 -36.719,-22.045 z"
       class="s2"
       id="path16" /><path
       d="m 173.772,312.311 v 13.781 c 14.573,3.18 27.372,11.095 36.719,22.045 l 9.557,-9.581 C 208.26,325.118 192.103,315.607 173.772,312.31 Z M 93.326,404.07 H 79.609 c 2.951,19.244 12.723,36.219 26.743,48.454 l 9.551,-9.575 C 104.378,433.157 96.196,419.547 93.326,404.07 Z"
       fill="#f78d0a"
       id="path18" /><path
       d="M 105.778,404.07 H 93.326 c 2.871,15.477 11.053,29.087 22.577,38.879 l 8.658,-8.678 c -9.259,-7.593 -16.015,-18.128 -18.783,-30.201 z"
       class="s2"
       id="path20" /></g></svg>
