<svg width="744" height="299" viewBox="0 0 744 299" fill="none" xmlns="http://www.w3.org/2000/svg">
<g filter="url(#filter0_f_146_295)">
<path d="M176.963 137.386L186.029 146.471C186.304 146.747 186.304 147.297 186.029 147.71L177.1 156.658" stroke="#C5E943" stroke-width="2" stroke-miterlimit="10"/>
</g>
<path d="M176.963 137.386L186.029 146.471C186.304 146.747 186.304 147.297 186.029 147.71L177.1 156.658" stroke="white" stroke-miterlimit="10"/>
<g filter="url(#filter1_f_146_295)">
<path d="M368 137.386L377.066 146.471C377.341 146.747 377.341 147.297 377.066 147.71L368.137 156.658" stroke="#C5E943" stroke-width="2" stroke-miterlimit="10"/>
</g>
<path d="M368 137.386L377.066 146.471C377.341 146.747 377.341 147.297 377.066 147.71L368.137 156.658" stroke="white" stroke-miterlimit="10"/>
<g filter="url(#filter2_f_146_295)">
<path d="M559.037 137.386L568.103 146.471C568.378 146.747 568.378 147.297 568.103 147.71L559.175 156.658" stroke="#C5E943" stroke-width="2" stroke-miterlimit="10"/>
</g>
<path d="M559.037 137.386L568.103 146.471C568.378 146.747 568.378 147.297 568.103 147.71L559.175 156.658" stroke="white" stroke-miterlimit="10"/>
<g filter="url(#filter3_d_146_295)">
<g filter="url(#filter4_f_146_295)">
<path d="M152.249 191.624H15.1086C10.323 191.624 6.49457 187.77 6.49457 182.952V116.048C6.49457 111.23 10.323 107.376 15.1086 107.376H152.386C157.172 107.376 161 111.23 161 116.048V182.952C160.863 187.77 157.035 191.624 152.249 191.624Z" stroke="#C5E943" stroke-width="2" stroke-miterlimit="10"/>
</g>
<path d="M152.249 191.624H15.1086C10.323 191.624 6.49457 187.77 6.49457 182.952V116.048C6.49457 111.23 10.323 107.376 15.1086 107.376H152.386C157.172 107.376 161 111.23 161 116.048V182.952C160.863 187.77 157.035 191.624 152.249 191.624Z" stroke="white" stroke-miterlimit="10"/>
</g>
<path d="M43.0333 142.066V143.856C42.0717 144.544 40.9728 144.957 39.7366 144.957C36.3025 144.957 33.6926 142.204 33.6926 138.762C33.6926 135.321 36.4398 132.568 39.7366 132.568C40.9728 132.568 42.2091 132.981 43.0333 133.669V135.459C42.2091 134.633 40.9728 134.082 39.7366 134.082C37.1266 134.082 35.0662 136.147 35.0662 138.9C35.0662 141.516 37.1266 143.718 39.7366 143.718C41.1102 143.443 42.2091 142.892 43.0333 142.066Z" fill="white"/>
<path d="M56.7696 138.625C56.7696 142.066 54.0224 144.82 50.7256 144.82C47.2916 144.82 44.6816 142.066 44.6816 138.625C44.6816 135.183 47.4289 132.43 50.7256 132.43C54.0224 132.43 56.7696 135.183 56.7696 138.625ZM46.0553 138.625C46.0553 141.378 48.1157 143.443 50.5883 143.443C53.0608 143.443 55.1213 141.378 55.1213 138.625C55.1213 135.872 53.0608 133.807 50.5883 133.807C48.1157 133.807 46.0553 135.872 46.0553 138.625Z" fill="white"/>
<path d="M62.1268 132.568C65.5609 132.568 68.3082 135.183 68.3082 138.625C68.3082 142.066 65.5609 144.682 62.1268 144.682H58.8301V132.568H62.1268ZM60.3411 133.944V143.443H62.1268C64.8741 143.443 66.7972 141.378 66.7972 138.762C66.7972 136.147 64.7367 134.082 62.1268 134.082H60.3411V133.944Z" fill="white"/>
<path d="M70.3686 132.568H77.5115V133.807H71.8796V137.799H77.0995V139.038H71.8796V143.305H77.5115V144.544H70.3686V132.568Z" fill="white"/>
<path d="M86.3028 143.581C87.8138 143.581 88.7754 142.892 88.7754 141.516C88.7754 140.552 88.2259 140.139 87.2644 139.588L85.2039 138.625C83.9676 137.936 82.8687 137.248 82.8687 135.596C82.8687 133.669 84.3797 132.292 86.5776 132.292C87.9512 132.292 89.0501 132.843 89.7369 133.531V135.183C88.7754 134.22 87.6765 133.669 86.4402 133.669C85.2039 133.669 84.2424 134.357 84.2424 135.459C84.2424 136.285 84.9292 136.835 85.7534 137.248L87.6765 138.212C89.1875 139.038 90.149 139.726 90.149 141.378C90.149 143.443 88.3633 144.82 86.1655 144.82C84.6545 144.82 83.2808 144.269 82.594 143.581V141.929C83.6929 142.892 85.0666 143.581 86.3028 143.581Z" fill="white"/>
<path d="M92.4842 132.568H99.6271V133.807H93.9952V137.799H99.215V139.038H93.9952V143.305H99.6271V144.544H92.4842V132.568Z" fill="white"/>
<path d="M106.358 133.944V144.682H104.847V133.944H100.726V132.705H110.341V133.944H106.358Z" fill="white"/>
<path d="M116.523 143.443C118.309 143.443 119.545 142.204 119.545 139.864V132.568H121.056V139.864C121.056 142.892 118.995 144.82 116.523 144.82C113.913 144.82 111.99 143.03 111.99 139.864V132.568H113.501V139.864C113.501 142.204 114.737 143.443 116.523 143.443Z" fill="white"/>
<path d="M125.177 139.726V144.682H123.666V132.568H126.688C129.16 132.568 130.946 133.807 130.946 136.147C130.946 138.349 129.16 139.726 126.688 139.726H125.177ZM125.177 138.349H126.55C128.199 138.349 129.298 137.523 129.298 136.147C129.298 134.77 128.199 133.944 126.55 133.944H125.177V138.349Z" fill="white"/>
<path d="M41.1102 164.505C40.8355 164.23 40.5607 163.817 40.0113 163.404C39.0497 164.23 37.9508 164.643 36.7145 164.643C34.5167 164.643 33.2805 163.128 33.2805 161.477C33.2805 159.962 34.242 158.861 35.4783 158.173C34.9288 157.484 34.5167 156.658 34.5167 155.832C34.5167 154.456 35.4783 153.079 37.4014 153.079C38.775 153.079 39.8739 154.043 39.8739 155.419C39.8739 156.658 39.1871 157.484 37.4014 158.448C38.3629 159.549 39.4618 160.788 40.1486 161.614C40.6981 160.788 40.9728 159.825 41.2475 158.31H42.6212C42.3465 160.1 41.797 161.477 40.9728 162.44C41.5223 163.128 42.2091 163.679 42.7585 164.367H41.1102V164.505ZM37.1266 163.541C38.0882 163.541 38.9124 163.128 39.4618 162.578C38.775 161.889 37.5387 160.513 36.3025 159.136C35.753 159.549 34.9288 160.238 34.9288 161.339C34.7915 162.578 35.753 163.541 37.1266 163.541ZM37.4014 154.18C36.4398 154.18 36.0277 155.006 36.0277 155.832C36.0277 156.658 36.4398 157.209 36.8519 157.897C37.9508 157.209 38.6376 156.658 38.6376 155.695C38.6376 154.869 38.3629 154.18 37.4014 154.18Z" fill="white"/>
<path d="M47.841 152.391H50.7256C53.3356 152.391 54.7092 153.63 54.7092 155.557C54.7092 156.796 53.885 157.76 52.7861 158.173C54.2971 158.448 55.396 159.549 55.396 161.201C55.396 163.404 53.7476 164.505 51.2751 164.505H47.841V152.391ZM50.5883 157.76C52.0993 157.76 53.1982 157.071 53.1982 155.832C53.1982 154.456 52.2366 153.767 50.5883 153.767H49.2146V157.76H50.5883ZM51.2751 163.128C52.7861 163.128 54.0224 162.302 54.0224 160.926C54.0224 159.549 52.9235 158.723 51.2751 158.723H49.352V162.991H51.2751V163.128Z" fill="white"/>
<path d="M61.7147 163.266C63.5005 163.266 64.7367 162.027 64.7367 159.687V152.391H66.2477V159.687C66.2477 162.715 64.1873 164.505 61.7147 164.505C59.1048 164.505 57.1817 162.715 57.1817 159.687V152.391H58.6927V159.687C58.6927 162.027 59.929 163.266 61.7147 163.266Z" fill="white"/>
<path d="M70.506 152.391V164.505H68.995V152.391H70.506Z" fill="white"/>
<path d="M73.3906 152.391H74.9016V163.128H80.1215V164.367H73.3906V152.391Z" fill="white"/>
<path d="M85.2039 152.391C88.638 152.391 91.3853 155.006 91.3853 158.448C91.3853 161.889 88.638 164.505 85.2039 164.505H81.9072V152.391H85.2039ZM83.4182 153.767V163.266H85.2039C87.9512 163.266 89.8743 161.201 89.8743 158.586C89.8743 155.97 87.8138 153.905 85.2039 153.905H83.4182V153.767Z" fill="white"/>
<g filter="url(#filter5_f_146_295)">
<path d="M345.233 89.7551H207.458C202.65 89.7551 198.804 85.9006 198.804 81.0824V14.1791C198.804 9.36095 202.65 5.50644 207.458 5.50644H345.371C350.178 5.50644 354.025 9.36095 354.025 14.1791V81.0824C353.887 85.9006 350.041 89.7551 345.233 89.7551Z" stroke="#C5E943" stroke-width="2" stroke-miterlimit="10"/>
</g>
<path d="M345.233 89.7551H207.458C202.65 89.7551 198.804 85.9006 198.804 81.0824V14.1791C198.804 9.36095 202.65 5.50644 207.458 5.50644H345.371C350.178 5.50644 354.025 9.36095 354.025 14.1791V81.0824C353.887 85.9006 350.041 89.7551 345.233 89.7551Z" stroke="white" stroke-miterlimit="10"/>
<path d="M236.029 47.9061V52.8619H234.518V40.7477H237.54C240.013 40.7477 241.798 41.9867 241.798 44.3269C241.798 46.6671 240.013 47.9061 237.54 47.9061H236.029ZM236.029 46.6671H237.403C239.051 46.6671 240.15 45.8412 240.15 44.4646C240.15 42.9503 239.051 42.262 237.403 42.262H236.029V46.6671Z" fill="white"/>
<path d="M245.095 52.8619H243.584V40.7477H246.606C249.079 40.7477 250.864 41.9867 250.864 44.3269C250.864 46.1165 249.766 47.2178 248.117 47.6308L252.375 52.8619H250.59L246.606 47.9061H245.233V52.8619H245.095ZM245.095 46.6671H246.469C248.117 46.6671 249.216 45.8412 249.216 44.4646C249.216 42.9503 248.117 42.262 246.469 42.262H245.095V46.6671Z" fill="white"/>
<path d="M265.013 46.8048C265.013 50.2463 262.266 52.9995 258.969 52.9995C255.535 52.9995 252.925 50.2463 252.925 46.8048C252.925 43.3633 255.672 40.61 258.969 40.61C262.266 40.61 265.013 43.3633 265.013 46.8048ZM254.299 46.8048C254.299 49.558 256.359 51.6229 258.832 51.6229C261.304 51.6229 263.365 49.558 263.365 46.8048C263.365 44.0516 261.304 41.9867 258.832 41.9867C256.359 41.9867 254.299 44.1892 254.299 46.8048Z" fill="white"/>
<path d="M270.37 40.8854C273.804 40.8854 276.551 43.5009 276.551 46.9425C276.551 50.384 273.804 52.9996 270.37 52.9996H267.073V40.8854H270.37ZM268.584 42.1243V51.6229H270.37C273.117 51.6229 275.04 49.558 275.04 46.9425C275.04 44.3269 272.98 42.262 270.37 42.262H268.584V42.1243Z" fill="white"/>
<path d="M283.008 51.7606C284.793 51.7606 286.03 50.5217 286.03 48.1814V40.8854H287.541V48.1814C287.541 51.21 285.48 52.9996 283.008 52.9996C280.535 52.9996 278.475 51.21 278.475 48.1814V40.8854H279.986V48.1814C279.848 50.384 281.222 51.7606 283.008 51.7606Z" fill="white"/>
<path d="M298.804 50.2463V52.0359C297.843 52.7242 296.744 53.1372 295.508 53.1372C292.074 53.1372 289.464 50.384 289.464 46.9425C289.464 43.5009 292.211 40.7477 295.508 40.7477C296.744 40.7477 297.98 41.1607 298.804 41.849V43.6386C297.98 42.8126 296.744 42.262 295.508 42.262C292.898 42.262 290.837 44.3269 290.837 47.0801C290.837 49.6957 292.898 51.8983 295.508 51.8983C296.881 51.6229 297.98 51.0723 298.804 50.2463Z" fill="white"/>
<path d="M301.14 40.8854H308.282V42.1243H302.651V46.1165H307.87V47.3555H302.651V51.6229H308.282V52.8619H301.14V40.8854Z" fill="white"/>
<path d="M312.129 52.8619H310.618V40.7477H313.64C316.112 40.7477 317.898 41.9867 317.898 44.3269C317.898 46.1165 316.799 47.2178 315.151 47.6308L319.409 52.8619H317.623L313.64 47.9061H312.266V52.8619H312.129ZM312.129 46.6671H313.502C315.151 46.6671 316.25 45.8412 316.25 44.4646C316.25 42.9503 315.151 42.262 313.502 42.262H312.129V46.6671Z" fill="white"/>
<g filter="url(#filter6_f_146_295)">
<path d="M345.233 191.249H207.458C202.65 191.249 198.804 187.394 198.804 182.576V115.673C198.804 110.855 202.65 107 207.458 107H345.371C350.178 107 354.025 110.855 354.025 115.673V182.576C353.887 187.394 350.041 191.249 345.233 191.249Z" stroke="#C5E943" stroke-width="2" stroke-miterlimit="10"/>
</g>
<path d="M345.233 191.249H207.458C202.65 191.249 198.804 187.394 198.804 182.576V115.673C198.804 110.855 202.65 107 207.458 107H345.371C350.178 107 354.025 110.855 354.025 115.673V182.576C353.887 187.394 350.041 191.249 345.233 191.249Z" stroke="white" stroke-miterlimit="10"/>
<path d="M236.029 149.4V154.355H234.518V142.241H237.54C240.013 142.241 241.798 143.48 241.798 145.82C241.798 148.161 240.013 149.4 237.54 149.4H236.029ZM236.029 148.161H237.403C239.051 148.161 240.15 147.335 240.15 145.958C240.15 144.444 239.051 143.756 237.403 143.756H236.029V148.161Z" fill="white"/>
<path d="M245.095 154.355H243.584V142.241H246.606C249.079 142.241 250.864 143.48 250.864 145.82C250.864 147.61 249.766 148.711 248.117 149.124L252.375 154.355H250.59L246.606 149.4H245.233V154.355H245.095ZM245.095 148.161H246.469C248.117 148.161 249.216 147.335 249.216 145.958C249.216 144.444 248.117 143.756 246.469 143.756H245.095V148.161Z" fill="white"/>
<path d="M265.013 148.298C265.013 151.74 262.266 154.493 258.969 154.493C255.535 154.493 252.925 151.74 252.925 148.298C252.925 144.857 255.672 142.104 258.969 142.104C262.266 142.104 265.013 144.857 265.013 148.298ZM254.299 148.298C254.299 151.052 256.359 153.116 258.832 153.116C261.304 153.116 263.365 151.052 263.365 148.298C263.365 145.545 261.304 143.48 258.832 143.48C256.359 143.48 254.299 145.683 254.299 148.298Z" fill="white"/>
<path d="M270.37 142.379C273.804 142.379 276.551 144.994 276.551 148.436C276.551 151.878 273.804 154.493 270.37 154.493H267.073V142.379H270.37ZM268.584 143.618V153.116H270.37C273.117 153.116 275.04 151.052 275.04 148.436C275.04 145.82 272.98 143.756 270.37 143.756H268.584V143.618Z" fill="white"/>
<path d="M283.008 153.254C284.793 153.254 286.03 152.015 286.03 149.675V142.379H287.541V149.675C287.541 152.704 285.48 154.493 283.008 154.493C280.535 154.493 278.475 152.704 278.475 149.675V142.379H279.986V149.675C279.848 151.878 281.222 153.254 283.008 153.254Z" fill="white"/>
<path d="M298.804 151.74V153.529C297.843 154.218 296.744 154.631 295.508 154.631C292.074 154.631 289.464 151.878 289.464 148.436C289.464 144.994 292.211 142.241 295.508 142.241C296.744 142.241 297.98 142.654 298.804 143.343V145.132C297.98 144.306 296.744 143.756 295.508 143.756C292.898 143.756 290.837 145.82 290.837 148.574C290.837 151.189 292.898 153.392 295.508 153.392C296.881 153.117 297.98 152.566 298.804 151.74Z" fill="white"/>
<path d="M301.14 142.379H308.282V143.618H302.651V147.61H307.87V148.849H302.651V153.116H308.282V154.355H301.14V142.379Z" fill="white"/>
<path d="M312.129 154.355H310.618V142.241H313.64C316.112 142.241 317.898 143.48 317.898 145.82C317.898 147.61 316.799 148.711 315.151 149.124L319.409 154.355H317.623L313.64 149.4H312.266V154.355H312.129ZM312.129 148.161H313.502C315.151 148.161 316.25 147.335 316.25 145.958C316.25 144.444 315.151 143.756 313.502 143.756H312.129V148.161Z" fill="white"/>
<g filter="url(#filter7_f_146_295)">
<path d="M345.233 292.249H207.458C202.65 292.249 198.804 288.394 198.804 283.576V216.673C198.804 211.855 202.65 208 207.458 208H345.371C350.178 208 354.025 211.855 354.025 216.673V283.576C353.887 288.394 350.041 292.249 345.233 292.249Z" stroke="#C5E943" stroke-width="2" stroke-miterlimit="10"/>
</g>
<path d="M345.233 292.249H207.458C202.65 292.249 198.804 288.394 198.804 283.576V216.673C198.804 211.855 202.65 208 207.458 208H345.371C350.178 208 354.025 211.855 354.025 216.673V283.576C353.887 288.394 350.041 292.249 345.233 292.249Z" stroke="white" stroke-miterlimit="10"/>
<path d="M236.029 250.4V255.355H234.518V243.241H237.54C240.013 243.241 241.798 244.48 241.798 246.82C241.798 249.161 240.013 250.4 237.54 250.4H236.029ZM236.029 249.161H237.403C239.051 249.161 240.15 248.335 240.15 246.958C240.15 245.444 239.051 244.756 237.403 244.756H236.029V249.161Z" fill="white"/>
<path d="M245.095 255.355H243.584V243.241H246.606C249.079 243.241 250.864 244.48 250.864 246.82C250.864 248.61 249.766 249.711 248.117 250.124L252.375 255.355H250.59L246.606 250.4H245.233V255.355H245.095ZM245.095 249.161H246.469C248.117 249.161 249.216 248.335 249.216 246.958C249.216 245.444 248.117 244.756 246.469 244.756H245.095V249.161Z" fill="white"/>
<path d="M265.013 249.298C265.013 252.74 262.266 255.493 258.969 255.493C255.535 255.493 252.925 252.74 252.925 249.298C252.925 245.857 255.672 243.104 258.969 243.104C262.266 243.104 265.013 245.857 265.013 249.298ZM254.299 249.298C254.299 252.052 256.359 254.116 258.832 254.116C261.304 254.116 263.365 252.052 263.365 249.298C263.365 246.545 261.304 244.48 258.832 244.48C256.359 244.48 254.299 246.683 254.299 249.298Z" fill="white"/>
<path d="M270.37 243.379C273.804 243.379 276.551 245.994 276.551 249.436C276.551 252.878 273.804 255.493 270.37 255.493H267.073V243.379H270.37ZM268.584 244.618V254.116H270.37C273.117 254.116 275.04 252.052 275.04 249.436C275.04 246.82 272.98 244.756 270.37 244.756H268.584V244.618Z" fill="white"/>
<path d="M283.008 254.254C284.793 254.254 286.03 253.015 286.03 250.675V243.379H287.541V250.675C287.541 253.704 285.48 255.493 283.008 255.493C280.535 255.493 278.475 253.704 278.475 250.675V243.379H279.986V250.675C279.848 252.878 281.222 254.254 283.008 254.254Z" fill="white"/>
<path d="M298.804 252.74V254.529C297.843 255.218 296.744 255.631 295.508 255.631C292.074 255.631 289.464 252.878 289.464 249.436C289.464 245.994 292.211 243.241 295.508 243.241C296.744 243.241 297.98 243.654 298.804 244.343V246.132C297.98 245.306 296.744 244.756 295.508 244.756C292.898 244.756 290.837 246.82 290.837 249.574C290.837 252.189 292.898 254.392 295.508 254.392C296.881 254.116 297.98 253.566 298.804 252.74Z" fill="white"/>
<path d="M301.14 243.379H308.282V244.618H302.651V248.61H307.87V249.849H302.651V254.116H308.282V255.355H301.14V243.379Z" fill="white"/>
<path d="M312.129 255.355H310.618V243.241H313.64C316.112 243.241 317.898 244.48 317.898 246.82C317.898 248.61 316.799 249.711 315.151 250.124L319.409 255.355H317.623L313.64 250.4H312.266V255.355H312.129ZM312.129 249.161H313.502C315.151 249.161 316.25 248.335 316.25 246.958C316.25 245.444 315.151 244.756 313.502 244.756H312.129V249.161Z" fill="white"/>
<g filter="url(#filter8_f_146_295)">
<path d="M537.542 191.624H399.767C394.959 191.624 391.113 187.77 391.113 182.952V116.048C391.113 111.23 394.959 107.376 399.767 107.376H537.68C542.488 107.376 546.334 111.23 546.334 116.048V182.952C546.196 187.77 542.35 191.624 537.542 191.624Z" stroke="#C5E943" stroke-width="2" stroke-miterlimit="10"/>
</g>
<path d="M537.542 191.624H399.767C394.959 191.624 391.113 187.77 391.113 182.952V116.048C391.113 111.23 394.959 107.376 399.767 107.376H537.68C542.488 107.376 546.334 111.23 546.334 116.048V182.952C546.196 187.77 542.35 191.624 537.542 191.624Z" stroke="white" stroke-miterlimit="10"/>
<path d="M429.575 142.755H436.718V143.994H431.086V147.986H436.305V149.225H431.086V153.492H436.718V154.731H429.575V142.755Z" fill="white"/>
<path d="M447.844 142.755H449.355V155.282L440.564 145.921V154.731H439.053V142.204L447.844 151.427V142.755Z" fill="white"/>
<path d="M453.751 154.731H452.24V142.617H455.262C457.734 142.617 459.52 143.856 459.52 146.196C459.52 147.986 458.421 149.087 456.773 149.5L461.031 154.731H459.245L455.262 149.775H453.888V154.731H453.751ZM453.751 148.536H455.124C456.773 148.536 457.871 147.71 457.871 146.334C457.871 144.957 456.773 144.131 455.124 144.131H453.751V148.536Z" fill="white"/>
<path d="M464.19 142.755V154.869H462.679V142.755H464.19Z" fill="white"/>
<path d="M475.866 152.116V153.905C474.905 154.593 473.806 155.006 472.569 155.006C469.135 155.006 466.525 152.253 466.525 148.812C466.525 145.37 469.273 142.617 472.569 142.617C473.806 142.617 475.042 143.03 475.866 143.718V145.508C475.042 144.682 473.806 144.131 472.569 144.131C469.959 144.131 467.899 146.196 467.899 148.949C467.899 151.565 469.959 153.768 472.569 153.768C473.806 153.492 475.042 152.942 475.866 152.116Z" fill="white"/>
<path d="M486.168 149.225H479.575V154.731H478.064V142.617H479.575V147.848H486.168V142.617H487.679V154.731H486.168V149.225Z" fill="white"/>
<path d="M490.564 142.755H497.707V143.994H492.075V147.986H497.295V149.225H492.075V153.492H497.707V154.731H490.564V142.755Z" fill="white"/>
<path d="M501.553 154.731H500.042V142.617H503.064C505.537 142.617 507.322 143.856 507.322 146.196C507.322 147.986 506.224 149.087 504.575 149.5L508.833 154.731H507.048L503.064 149.775H501.69V154.731H501.553ZM501.553 148.536H502.927C504.575 148.536 505.674 147.71 505.674 146.334C505.674 144.957 504.575 144.131 502.927 144.131H501.553V148.536Z" fill="white"/>
<g filter="url(#filter9_f_146_295)">
<path d="M729.852 89.7551H592.076C587.268 89.7551 583.422 85.9006 583.422 81.0824V14.1791C583.422 9.36095 587.268 5.50644 592.076 5.50644H729.989C734.797 5.50644 738.643 9.36095 738.643 14.1791V81.0824C738.505 85.9006 734.659 89.7551 729.852 89.7551Z" stroke="#C5E943" stroke-width="2" stroke-miterlimit="10"/>
</g>
<path d="M729.852 89.7551H592.076C587.268 89.7551 583.422 85.9006 583.422 81.0824V14.1791C583.422 9.36095 587.268 5.50644 592.076 5.50644H729.989C734.797 5.50644 738.643 9.36095 738.643 14.1791V81.0824C738.505 85.9006 734.659 89.7551 729.852 89.7551Z" stroke="white" stroke-miterlimit="10"/>
<path d="M624.219 50.2463V52.0359C623.257 52.7242 622.158 53.1372 620.922 53.1372C617.488 53.1372 614.878 50.384 614.878 46.9424C614.878 43.5009 617.625 40.7477 620.922 40.7477C622.158 40.7477 623.395 41.1607 624.219 41.849V43.6386C623.395 42.8126 622.158 42.262 620.922 42.262C618.312 42.262 616.252 44.3269 616.252 47.0801C616.252 49.6957 618.312 51.8982 620.922 51.8982C622.158 51.6229 623.395 51.0723 624.219 50.2463Z" fill="white"/>
<path d="M637.955 46.8048C637.955 50.2463 635.208 52.9995 631.911 52.9995C628.477 52.9995 625.867 50.2463 625.867 46.8048C625.867 43.3633 628.615 40.61 631.911 40.61C635.208 40.61 637.955 43.3633 637.955 46.8048ZM627.241 46.8048C627.241 49.558 629.301 51.6229 631.774 51.6229C634.246 51.6229 636.307 49.558 636.307 46.8048C636.307 44.0516 634.246 41.9867 631.774 41.9867C629.301 41.9867 627.241 44.1892 627.241 46.8048Z" fill="white"/>
<path d="M648.807 40.8854H650.318V53.4125L641.527 44.1892V52.9995H640.016V40.4724L648.807 49.6957V40.8854Z" fill="white"/>
<path d="M655.813 51.7606C657.324 51.7606 658.285 51.0723 658.285 49.6957C658.285 48.732 657.736 48.3191 656.774 47.7684L654.851 46.8048C653.615 46.1165 652.516 45.4282 652.516 43.7762C652.516 41.849 654.027 40.4724 656.225 40.4724C657.598 40.4724 658.697 41.023 659.384 41.7113V43.3633C658.422 42.3996 657.324 41.849 656.087 41.849C654.851 41.849 653.889 42.5373 653.889 43.6386C653.889 44.4646 654.576 45.0152 655.4 45.4282L657.324 46.3918C658.835 47.2178 659.796 47.9061 659.796 49.558C659.796 51.6229 658.01 52.9995 655.813 52.9995C654.302 52.9995 652.928 52.4489 652.241 51.7606V50.1087C653.34 51.0723 654.576 51.7606 655.813 51.7606Z" fill="white"/>
<path d="M666.252 51.7606C668.038 51.7606 669.274 50.5216 669.274 48.1814V40.8854H670.785V48.1814C670.785 51.2099 668.725 52.9995 666.252 52.9995C663.642 52.9995 661.719 51.2099 661.719 48.1814V40.8854H663.23V48.1814C663.23 50.384 664.466 51.7606 666.252 51.7606Z" fill="white"/>
<path d="M684.109 40.3347L687.406 52.8619H685.895L683.835 44.6022L679.851 53.1372L675.868 44.6022L673.807 52.8619H672.296L675.593 40.3347L679.989 49.8333L684.109 40.3347Z" fill="white"/>
<path d="M689.329 40.8854H696.472V42.1243H690.84V46.1165H696.06V47.3554H690.84V51.6229H696.472V52.8619H689.329V40.8854Z" fill="white"/>
<path d="M700.318 52.8619H698.807V40.7477H701.829C704.302 40.7477 706.088 41.9866 706.088 44.3269C706.088 46.1165 704.989 47.2178 703.34 47.6308L707.599 52.8619H705.676L701.692 47.9061H700.318V52.8619ZM700.318 46.6671H701.692C703.34 46.6671 704.439 45.8412 704.439 44.4645C704.439 42.9503 703.34 42.262 701.692 42.262H700.318V46.6671Z" fill="white"/>
<g filter="url(#filter10_f_146_295)">
<path d="M729.852 191.249H592.076C587.268 191.249 583.422 187.394 583.422 182.576V115.673C583.422 110.855 587.268 107 592.076 107H729.989C734.797 107 738.643 110.855 738.643 115.673V182.576C738.505 187.394 734.659 191.249 729.852 191.249Z" stroke="#C5E943" stroke-width="2" stroke-miterlimit="10"/>
</g>
<path d="M729.852 191.249H592.076C587.268 191.249 583.422 187.394 583.422 182.576V115.673C583.422 110.855 587.268 107 592.076 107H729.989C734.797 107 738.643 110.855 738.643 115.673V182.576C738.505 187.394 734.659 191.249 729.852 191.249Z" stroke="white" stroke-miterlimit="10"/>
<path d="M624.219 151.74V153.529C623.257 154.218 622.158 154.631 620.922 154.631C617.488 154.631 614.878 151.878 614.878 148.436C614.878 144.994 617.625 142.241 620.922 142.241C622.158 142.241 623.395 142.654 624.219 143.343V145.132C623.395 144.306 622.158 143.756 620.922 143.756C618.312 143.756 616.252 145.82 616.252 148.574C616.252 151.189 618.312 153.392 620.922 153.392C622.158 153.116 623.395 152.566 624.219 151.74Z" fill="white"/>
<path d="M637.955 148.298C637.955 151.74 635.208 154.493 631.911 154.493C628.477 154.493 625.867 151.74 625.867 148.298C625.867 144.857 628.615 142.104 631.911 142.104C635.208 142.104 637.955 144.857 637.955 148.298ZM627.241 148.298C627.241 151.052 629.301 153.116 631.774 153.116C634.246 153.116 636.307 151.052 636.307 148.298C636.307 145.545 634.246 143.48 631.774 143.48C629.301 143.48 627.241 145.683 627.241 148.298Z" fill="white"/>
<path d="M648.807 142.379H650.318V154.906L641.527 145.683V154.493H640.016V141.966L648.807 151.189V142.379Z" fill="white"/>
<path d="M655.813 153.254C657.324 153.254 658.285 152.566 658.285 151.189C658.285 150.226 657.736 149.813 656.774 149.262L654.851 148.298C653.615 147.61 652.516 146.922 652.516 145.27C652.516 143.343 654.027 141.966 656.225 141.966C657.598 141.966 658.697 142.517 659.384 143.205V144.857C658.422 143.893 657.324 143.343 656.087 143.343C654.851 143.343 653.889 144.031 653.889 145.132C653.889 145.958 654.576 146.509 655.4 146.922L657.324 147.885C658.835 148.711 659.796 149.4 659.796 151.052C659.796 153.116 658.01 154.493 655.813 154.493C654.302 154.493 652.928 153.942 652.241 153.254V151.602C653.34 152.566 654.576 153.254 655.813 153.254Z" fill="white"/>
<path d="M666.252 153.254C668.038 153.254 669.274 152.015 669.274 149.675V142.379H670.785V149.675C670.785 152.704 668.725 154.493 666.252 154.493C663.642 154.493 661.719 152.704 661.719 149.675V142.379H663.23V149.675C663.23 151.878 664.466 153.254 666.252 153.254Z" fill="white"/>
<path d="M684.109 141.828L687.406 154.355H685.895L683.835 146.096L679.851 154.631L675.868 146.096L673.807 154.355H672.296L675.593 141.828L679.989 151.327L684.109 141.828Z" fill="white"/>
<path d="M689.329 142.379H696.472V143.618H690.84V147.61H696.06V148.849H690.84V153.116H696.472V154.355H689.329V142.379Z" fill="white"/>
<path d="M700.318 154.355H698.807V142.241H701.829C704.302 142.241 706.088 143.48 706.088 145.82C706.088 147.61 704.989 148.711 703.34 149.124L707.599 154.355H705.676L701.692 149.4H700.318V154.355ZM700.318 148.161H701.692C703.34 148.161 704.439 147.335 704.439 145.958C704.439 144.444 703.34 143.756 701.692 143.756H700.318V148.161Z" fill="white"/>
<g filter="url(#filter11_f_146_295)">
<path d="M729.852 292.742H592.076C587.268 292.742 583.422 288.888 583.422 284.07V217.166C583.422 212.348 587.268 208.494 592.076 208.494H729.989C734.797 208.494 738.643 212.348 738.643 217.166V284.07C738.505 288.888 734.659 292.742 729.852 292.742Z" stroke="#C5E943" stroke-width="2" stroke-miterlimit="10"/>
</g>
<path d="M729.852 292.742H592.076C587.268 292.742 583.422 288.888 583.422 284.07V217.166C583.422 212.348 587.268 208.494 592.076 208.494H729.989C734.797 208.494 738.643 212.348 738.643 217.166V284.07C738.505 288.888 734.659 292.742 729.852 292.742Z" stroke="white" stroke-miterlimit="10"/>
<path d="M624.219 253.233V255.023C623.257 255.711 622.158 256.124 620.922 256.124C617.488 256.124 614.878 253.371 614.878 249.93C614.878 246.488 617.625 243.735 620.922 243.735C622.158 243.735 623.395 244.148 624.219 244.836V246.626C623.395 245.8 622.158 245.249 620.922 245.249C618.312 245.249 616.252 247.314 616.252 250.067C616.252 252.683 618.312 254.885 620.922 254.885C622.158 254.61 623.395 254.059 624.219 253.233Z" fill="white"/>
<path d="M637.955 249.792C637.955 253.233 635.208 255.987 631.911 255.987C628.477 255.987 625.867 253.233 625.867 249.792C625.867 246.35 628.615 243.597 631.911 243.597C635.208 243.597 637.955 246.35 637.955 249.792ZM627.241 249.792C627.241 252.545 629.301 254.61 631.774 254.61C634.246 254.61 636.307 252.545 636.307 249.792C636.307 247.039 634.246 244.974 631.774 244.974C629.301 244.974 627.241 247.176 627.241 249.792Z" fill="white"/>
<path d="M648.807 243.872H650.318V256.4L641.527 247.176V255.987H640.016V243.459L648.807 252.683V243.872Z" fill="white"/>
<path d="M655.813 254.748C657.324 254.748 658.285 254.059 658.285 252.683C658.285 251.719 657.736 251.306 656.774 250.756L654.851 249.792C653.615 249.104 652.516 248.415 652.516 246.763C652.516 244.836 654.027 243.459 656.225 243.459C657.598 243.459 658.697 244.01 659.384 244.698V246.35C658.422 245.387 657.324 244.836 656.087 244.836C654.851 244.836 653.889 245.524 653.889 246.626C653.889 247.452 654.576 248.002 655.4 248.415L657.324 249.379C658.835 250.205 659.796 250.893 659.796 252.545C659.796 254.61 658.01 255.987 655.813 255.987C654.302 255.987 652.928 255.436 652.241 254.748V253.096C653.34 254.059 654.576 254.748 655.813 254.748Z" fill="white"/>
<path d="M666.252 254.748C668.038 254.748 669.274 253.509 669.274 251.169V243.872H670.785V251.169C670.785 254.197 668.725 255.987 666.252 255.987C663.642 255.987 661.719 254.197 661.719 251.169V243.872H663.23V251.169C663.23 253.371 664.466 254.748 666.252 254.748Z" fill="white"/>
<path d="M684.109 243.322L687.406 255.849H685.895L683.835 247.589L679.851 256.124L675.868 247.589L673.807 255.849H672.296L675.593 243.322L679.989 252.82L684.109 243.322Z" fill="white"/>
<path d="M689.329 243.872H696.472V245.111H690.84V249.104H696.06V250.343H690.84V254.61H696.472V255.849H689.329V243.872Z" fill="white"/>
<path d="M700.318 255.849H698.807V243.735H701.829C704.302 243.735 706.088 244.974 706.088 247.314C706.088 249.104 704.989 250.205 703.34 250.618L707.599 255.849H705.676L701.692 250.893H700.318V255.849ZM700.318 249.654H701.692C703.34 249.654 704.439 248.828 704.439 247.452C704.439 245.937 703.34 245.249 701.692 245.249H700.318V249.654Z" fill="white"/>
<defs>
<filter id="filter0_f_146_295" x="172.255" y="132.679" width="18.9799" height="28.6852" filterUnits="userSpaceOnUse" color-interpolation-filters="sRGB">
<feFlood flood-opacity="0" result="BackgroundImageFix"/>
<feBlend mode="normal" in="SourceGraphic" in2="BackgroundImageFix" result="shape"/>
<feGaussianBlur stdDeviation="2" result="effect1_foregroundBlur_146_295"/>
</filter>
<filter id="filter1_f_146_295" x="363.292" y="132.679" width="18.9799" height="28.6852" filterUnits="userSpaceOnUse" color-interpolation-filters="sRGB">
<feFlood flood-opacity="0" result="BackgroundImageFix"/>
<feBlend mode="normal" in="SourceGraphic" in2="BackgroundImageFix" result="shape"/>
<feGaussianBlur stdDeviation="2" result="effect1_foregroundBlur_146_295"/>
</filter>
<filter id="filter2_f_146_295" x="554.329" y="132.679" width="18.9799" height="28.6852" filterUnits="userSpaceOnUse" color-interpolation-filters="sRGB">
<feFlood flood-opacity="0" result="BackgroundImageFix"/>
<feBlend mode="normal" in="SourceGraphic" in2="BackgroundImageFix" result="shape"/>
<feGaussianBlur stdDeviation="2" result="effect1_foregroundBlur_146_295"/>
</filter>
<filter id="filter3_d_146_295" x="1.49457" y="106.376" width="164.505" height="94.2486" filterUnits="userSpaceOnUse" color-interpolation-filters="sRGB">
<feFlood flood-opacity="0" result="BackgroundImageFix"/>
<feColorMatrix in="SourceAlpha" type="matrix" values="0 0 0 0 0 0 0 0 0 0 0 0 0 0 0 0 0 0 127 0" result="hardAlpha"/>
<feOffset dy="4"/>
<feGaussianBlur stdDeviation="2"/>
<feComposite in2="hardAlpha" operator="out"/>
<feColorMatrix type="matrix" values="0 0 0 0 0 0 0 0 0 0 0 0 0 0 0 0 0 0 0.25 0"/>
<feBlend mode="normal" in2="BackgroundImageFix" result="effect1_dropShadow_146_295"/>
<feBlend mode="normal" in="SourceGraphic" in2="effect1_dropShadow_146_295" result="shape"/>
</filter>
<filter id="filter4_f_146_295" x="0.494568" y="101.376" width="166.505" height="96.2486" filterUnits="userSpaceOnUse" color-interpolation-filters="sRGB">
<feFlood flood-opacity="0" result="BackgroundImageFix"/>
<feBlend mode="normal" in="SourceGraphic" in2="BackgroundImageFix" result="shape"/>
<feGaussianBlur stdDeviation="2.5" result="effect1_foregroundBlur_146_295"/>
</filter>
<filter id="filter5_f_146_295" x="193.804" y="0.506439" width="165.221" height="94.2486" filterUnits="userSpaceOnUse" color-interpolation-filters="sRGB">
<feFlood flood-opacity="0" result="BackgroundImageFix"/>
<feBlend mode="normal" in="SourceGraphic" in2="BackgroundImageFix" result="shape"/>
<feGaussianBlur stdDeviation="2" result="effect1_foregroundBlur_146_295"/>
</filter>
<filter id="filter6_f_146_295" x="193.804" y="102" width="165.221" height="94.2486" filterUnits="userSpaceOnUse" color-interpolation-filters="sRGB">
<feFlood flood-opacity="0" result="BackgroundImageFix"/>
<feBlend mode="normal" in="SourceGraphic" in2="BackgroundImageFix" result="shape"/>
<feGaussianBlur stdDeviation="2" result="effect1_foregroundBlur_146_295"/>
</filter>
<filter id="filter7_f_146_295" x="193.804" y="203" width="165.221" height="94.2486" filterUnits="userSpaceOnUse" color-interpolation-filters="sRGB">
<feFlood flood-opacity="0" result="BackgroundImageFix"/>
<feBlend mode="normal" in="SourceGraphic" in2="BackgroundImageFix" result="shape"/>
<feGaussianBlur stdDeviation="2" result="effect1_foregroundBlur_146_295"/>
</filter>
<filter id="filter8_f_146_295" x="386.113" y="102.376" width="165.221" height="94.2486" filterUnits="userSpaceOnUse" color-interpolation-filters="sRGB">
<feFlood flood-opacity="0" result="BackgroundImageFix"/>
<feBlend mode="normal" in="SourceGraphic" in2="BackgroundImageFix" result="shape"/>
<feGaussianBlur stdDeviation="2" result="effect1_foregroundBlur_146_295"/>
</filter>
<filter id="filter9_f_146_295" x="578.422" y="0.506439" width="165.221" height="94.2486" filterUnits="userSpaceOnUse" color-interpolation-filters="sRGB">
<feFlood flood-opacity="0" result="BackgroundImageFix"/>
<feBlend mode="normal" in="SourceGraphic" in2="BackgroundImageFix" result="shape"/>
<feGaussianBlur stdDeviation="2" result="effect1_foregroundBlur_146_295"/>
</filter>
<filter id="filter10_f_146_295" x="578.422" y="102" width="165.221" height="94.2486" filterUnits="userSpaceOnUse" color-interpolation-filters="sRGB">
<feFlood flood-opacity="0" result="BackgroundImageFix"/>
<feBlend mode="normal" in="SourceGraphic" in2="BackgroundImageFix" result="shape"/>
<feGaussianBlur stdDeviation="2" result="effect1_foregroundBlur_146_295"/>
</filter>
<filter id="filter11_f_146_295" x="578.422" y="203.494" width="165.221" height="94.2486" filterUnits="userSpaceOnUse" color-interpolation-filters="sRGB">
<feFlood flood-opacity="0" result="BackgroundImageFix"/>
<feBlend mode="normal" in="SourceGraphic" in2="BackgroundImageFix" result="shape"/>
<feGaussianBlur stdDeviation="2" result="effect1_foregroundBlur_146_295"/>
</filter>
</defs>
</svg>
