<svg width="233" height="162" viewBox="0 0 233 162" fill="none" xmlns="http://www.w3.org/2000/svg">
<g clip-path="url(#clip0_104_2)">
<path d="M34.3 142.7C34.2 145.9 33.9 148.7 32.8 151.3C30.1 157.3 23.5 160.9 17.2 160.9H0V114.6H16.9C23.4 114.6 30.1 118.1 32.7 124.1C34 127 34.3 130.7 34.3 134.1C34.4 141.2 34.4 142 34.3 142.7ZM22.7 126.5C21.6 125.1 19.6 123.8 16.9 123.8H9.7V151.8H17.1C19.8 151.8 21.6 150.6 22.7 149.2C24.1 147.4 24.6 146.8 24.6 137.9C24.6 129 24.1 128.3 22.7 126.5Z" fill="white"/>
<path d="M55.7 142.4H49.6V160.9H39.9V114.6H58.6C63.7 114.6 68.1 116.3 71.1 120.6C72.6 122.7 73.6 125.3 73.6 128.3C73.6 133.9 70.7 138.6 65.6 141L76.2 161H65.2L55.7 142.4ZM58.5 123.4H49.6V133.5H58.2C61.6 133.5 64.2 131.6 64.2 128.2C64.2 127.1 63.9 126.1 63.4 125.3C62.3 123.9 60.7 123.4 58.5 123.4Z" fill="white"/>
<path d="M105.6 151.2H91L87.6 160.9H77.3L94.4 114.6H102.1L119.2 160.9H109L105.6 151.2ZM93.9 142.4H102.6L98.3 129.5L93.9 142.4Z" fill="white"/>
<path d="M136.8 161.3C130.5 161.3 123.7 157.8 121.1 151.8C119.8 148.7 119.6 144.9 119.6 141.3V134.4C119.6 130.7 119.8 126.7 121.1 123.8C123.8 117.7 130.5 114.3 136.8 114.3C145.8 114.3 152.2 120.6 154 130.1H144C143.2 126.1 140.1 123.8 136.7 123.8C134 123.8 132.2 125 131 126.4C129.6 128.1 129.1 128.9 129.1 137.9C129.1 146.9 129.6 147.5 131 149.3C132.1 150.6 134 151.9 136.7 151.9C140.1 151.9 143 149.8 144 145.6H154C152.3 155 145.8 161.3 136.8 161.3Z" fill="white"/>
<path d="M190.9 143.1C190.6 146.3 190.6 149.2 189.4 151.8C186.6 157.8 180.1 161.3 173.8 161.3C167.5 161.3 160.8 157.8 158.2 151.8C156.9 148.8 156.7 144.9 156.7 141.3V134.4C156.7 130.7 156.9 126.7 158.2 123.8C160.9 117.7 167.5 114.3 173.8 114.3C180.1 114.3 186.8 117.8 189.4 123.8C190.7 126.7 191 130.7 191 134.4V140.8C191 141.6 191 142.4 190.9 143.1ZM179.4 126.3C178.3 124.9 176.4 123.7 173.7 123.7C171.1 123.7 169.2 124.9 168.1 126.3C166.7 128 166.2 128.8 166.2 137.8C166.2 146.8 166.7 147.5 168.1 149.2C169.2 150.5 171.1 151.8 173.7 151.8C176.4 151.8 178.2 150.5 179.4 149.2C180.8 147.4 181.3 146.7 181.3 137.8C181.3 128.9 180.8 128.1 179.4 126.3Z" fill="white"/>
<path d="M222.9 114.6H232.6V160.9H224L206.1 133.5V160.9H196.4V114.6H205.1L223 142V114.6H222.9Z" fill="white"/>
<path d="M85.7 13.6C88.6 13.6 91.2 11.7 92.1 9.00002H132.9C133.9 11.7 136.4 13.5 139.3 13.5C143 13.5 146.1 10.5 146.1 6.70002C146.1 3.00002 143.1 -0.0999756 139.3 -0.0999756C136.4 -0.0999756 133.7 1.80002 132.9 4.60002H92.1C91.2 1.90002 88.6 2.44156e-05 85.7 2.44156e-05C82 2.44156e-05 78.9 3.00002 78.9 6.80002C78.9 10.6 82 13.6 85.7 13.6ZM83.3 6.90002C83.3 5.60002 84.4 4.50002 85.7 4.50002C86.3 4.50002 87 4.80002 87.4 5.20002C87.9 5.70002 88.1 6.30002 88.1 6.90002C88.1 7.60002 87.8 8.20003 87.4 8.60003C86.9 9.10003 86.3 9.30002 85.7 9.30002C84.4 9.30002 83.3 8.20002 83.3 6.90002ZM141.2 8.20002C141.1 8.30002 141 8.50002 140.8 8.60003C139.9 9.40003 138.5 9.40003 137.6 8.60003C137.1 8.10003 136.8 7.50002 136.8 6.80002C136.8 6.40002 136.9 6.00002 137.1 5.60002C137.5 4.80002 138.3 4.40002 139.2 4.40002C140.5 4.40002 141.6 5.50002 141.6 6.80002C141.7 7.30002 141.5 7.80002 141.2 8.20002Z" fill="#42C1C7"/>
<path d="M96.5 14.5C92.8 14.5 89.7 17.5 89.7 21.3C89.7 25 92.7 28.1 96.5 28.1C99.4 28.1 102 26.2 102.9 23.5H146.7C147.5 26.3 150.2 28.3 153.2 28.3C156.9 28.3 160 25.3 160 21.5C160 17.8 157 14.7 153.2 14.7C150.4 14.7 147.9 16.5 146.9 19.1H103C102 16.4 99.4 14.5 96.5 14.5ZM98.9 21.3C98.9 21.9 98.6 22.6 98.2 23C97.7 23.4 97.1 23.7 96.5 23.7C95.2 23.7 94.1 22.6 94.1 21.3C94.1 20 95.2 18.9 96.5 18.9C97.1 18.9 97.7 19.2 98.2 19.6C98.7 20 98.9 20.7 98.9 21.3ZM151.7 19.6C152.1 19.3 152.6 19.1 153.2 19.1C154.5 19.1 155.6 20.2 155.6 21.5C155.6 22.8 154.5 23.9 153.2 23.9C152.5 23.9 151.8 23.6 151.3 23C150.9 22.6 150.8 22 150.8 21.5C150.7 20.8 151 20.1 151.7 19.6Z" fill="#42C1C7"/>
<path d="M158.3 42.5C162 42.5 165.1 39.5 165.1 35.7C165.1 32 162.1 28.9 158.3 28.9C155.4 28.9 152.9 30.7 151.9 33.5H80.8C79.9 30.8 77.3 28.9 74.4 28.9C70.7 28.9 67.6 31.9 67.6 35.7C67.6 39.4 70.6 42.5 74.4 42.5C77.3 42.5 79.9 40.6 80.8 37.9H151.9C152.8 40.6 155.4 42.5 158.3 42.5ZM155.8 35.8C155.8 35.1 156.1 34.5 156.6 34C157.1 33.6 157.6 33.3 158.3 33.3C159.6 33.3 160.7 34.4 160.7 35.7C160.7 37 159.6 38.1 158.3 38.1C157.6 38.1 157 37.8 156.6 37.4C156.1 37 155.8 36.4 155.8 35.8ZM76.8 35.7C76.8 36.4 76.5 37 76.1 37.4C75.7 37.8 75 38.1 74.4 38.1C73.1 38.1 72 37 72 35.7C72 34.4 73.1 33.3 74.4 33.3C75 33.3 75.6 33.6 76.1 34C76.6 34.5 76.8 35.1 76.8 35.7Z" fill="#42C1C7"/>
<path d="M158.3 43.4C155.4 43.4 152.8 45.3 151.9 48H96.9C96 45.2 93.4 43.4 90.5 43.4C86.8 43.4 83.7 46.4 83.7 50.2C83.7 53.9 86.7 57 90.5 57C93.4 57 96 55.2 96.9 52.4H151.9C152.8 55.1 155.4 57 158.3 57C162 57 165.1 54 165.1 50.2C165 46.4 162 43.4 158.3 43.4ZM160.7 50.1C160.7 51.4 159.6 52.5 158.3 52.5C157.7 52.5 157.1 52.3 156.6 51.8C156.1 51.3 155.8 50.7 155.8 50C155.8 49.4 156 48.8 156.5 48.3C156.9 47.8 157.6 47.6 158.2 47.6C159.6 47.7 160.7 48.8 160.7 50.1ZM92.9 50.2C92.9 50.9 92.6 51.5 92.2 51.9C91.7 52.4 91.1 52.6 90.5 52.6C89.2 52.6 88.1 51.5 88.1 50.2C88.1 48.9 89.2 47.8 90.5 47.8C91.1 47.8 91.8 48.1 92.2 48.5C92.7 48.9 92.9 49.5 92.9 50.2Z" fill="#42C1C7"/>
<path d="M153.1 57.8C150.2 57.8 147.6 59.7 146.7 62.5H112.1C111.2 59.7 108.6 57.9001 105.7 57.9001C102 57.9001 98.9 60.9 98.9 64.7C98.9 68.4 101.9 71.5 105.7 71.5C108.6 71.5 111.2 69.6001 112.1 66.9001H146.7C147.6 69.6001 150.2 71.4001 153.1 71.4001C156.8 71.4001 159.9 68.4 159.9 64.6C159.9 60.8 156.9 57.8 153.1 57.8ZM153.1 67C152.5 67 151.9 66.8001 151.4 66.3001C150.9 65.8001 150.6 65.2 150.6 64.5C150.6 63.9 150.8 63.3 151.3 62.8C151.7 62.3 152.4 62.1 153 62.1C154.3 62.1 155.4 63.2 155.4 64.5C155.6 65.9 154.5 67 153.1 67ZM108.1 64.6C108.1 65.3 107.8 65.9001 107.4 66.3001C106.9 66.8001 106.3 67 105.7 67C104.4 67 103.3 65.9 103.3 64.6C103.3 63.3 104.4 62.2001 105.7 62.2001C106.3 62.2001 106.9 62.4001 107.4 62.9001C107.9 63.3001 108.1 64 108.1 64.6Z" fill="#42C1C7"/>
<path d="M139.2 72.3C136.3 72.3 133.7 74.1 132.8 76.9H102.7C101.8 74.1 99.2 72.3 96.3 72.3C92.6 72.3 89.5 75.3 89.5 79.1C89.5 82.8 92.5 85.9 96.3 85.9C99.2 85.9 101.8 84 102.7 81.3H132.8C133.7 84.1 136.3 85.9 139.2 85.9C142.9 85.9 146 82.9 146 79.1C146 75.3 142.9 72.3 139.2 72.3ZM140.9 77.3C141 77.4 141.1 77.5 141.2 77.6C141.5 78 141.7 78.5 141.7 79C141.7 80.3 140.6 81.4 139.3 81.4C138.4 81.4 137.6 80.9 137.1 80.1C136.9 79.8 136.8 79.4 136.8 79C136.8 78.3 137.1 77.7 137.6 77.2C138.1 76.8 138.7 76.5 139.3 76.5C139.8 76.6 140.4 76.9 140.9 77.3ZM98.7 79C98.7 79.7 98.4 80.3 98 80.7C97.5 81.2 96.9 81.4 96.3 81.4C95 81.4 93.9 80.3 93.9 79C93.9 77.7 95 76.6 96.3 76.6C97 76.6 97.6 76.8 98 77.3C98.5 77.8 98.7 78.4 98.7 79Z" fill="#42C1C7"/>
</g>
<defs>
<clipPath id="clip0_104_2">
<rect width="232.6" height="161.3" fill="white"/>
</clipPath>
</defs>
</svg>
