<svg width="26" height="26" viewBox="0 0 26 26" fill="none" xmlns="http://www.w3.org/2000/svg">
<path fill-rule="evenodd" clip-rule="evenodd" d="M6.11876 3.00838C6.11876 4.68071 4.93765 6.01884 3.04119 6.01884H3.00643C1.18046 6.01884 0 4.68071 0 3.00838C0 1.30068 1.21641 0 3.07703 0C4.93765 0 6.08346 1.30068 6.11876 3.00838ZM5.76052 8.39606V25.8128H0.321594V8.39606H5.76052ZM25.3752 25.8128L25.3754 15.8266C25.3754 10.4769 22.6922 7.98709 19.1132 7.98709C16.2254 7.98709 14.9326 9.67757 14.2107 10.8635V8.39653H8.77112C8.84281 10.0308 8.77112 25.8132 8.77112 25.8132H14.2107V16.0863C14.2107 15.5658 14.246 15.0465 14.3898 14.6739C14.7829 13.634 15.6779 12.5573 17.1805 12.5573C19.1494 12.5573 19.9365 14.1544 19.9365 16.4948V25.8128H25.3752Z" fill="white"/>
</svg>
