<svg width="23" height="19" viewBox="0 0 23 19" fill="none" xmlns="http://www.w3.org/2000/svg">
<path d="M11.1678 5.03309L11.2177 5.81164L10.3867 5.71631C7.36211 5.35087 4.71973 4.11154 2.4762 2.03011L1.37936 0.997341L1.09684 1.76C0.498563 3.4601 0.880795 5.25554 2.1272 6.46308C2.79195 7.13041 2.64238 7.22575 1.49569 6.82853C1.09684 6.70142 0.747845 6.60608 0.714607 6.65375C0.598276 6.76497 0.997126 8.21085 1.31288 8.78285C1.74497 9.57729 2.62577 10.3558 3.58965 10.8166L4.40397 11.1821L3.44008 11.1979C2.50943 11.1979 2.4762 11.2138 2.57591 11.5475C2.90828 12.5803 4.22117 13.6766 5.68362 14.1533L6.71398 14.4869L5.81657 14.9954C4.48707 15.7262 2.9249 16.1394 1.36274 16.1711C0.614894 16.187 0 16.2506 0 16.2982C0 16.4571 2.02749 17.3469 3.20742 17.6965C6.74722 18.7292 10.9518 18.2843 14.1093 16.5207C16.3529 15.2655 18.5964 12.7709 19.6434 10.3558C20.2084 9.06885 20.7735 6.71731 20.7735 5.5892C20.7735 4.85832 20.8233 4.76298 21.754 3.8891C22.3024 3.38066 22.8176 2.82455 22.9173 2.66566C23.0835 2.36378 23.0669 2.36378 22.2193 2.63389C20.8067 3.11055 20.6073 3.04699 21.3053 2.332C21.8204 1.82356 22.4353 0.902008 22.4353 0.631899C22.4353 0.584232 22.1861 0.663676 21.9035 0.806675C21.6044 0.965563 20.9396 1.2039 20.4411 1.34689L19.5437 1.617L18.7294 1.09267C18.2806 0.806675 17.6491 0.4889 17.3168 0.393567C16.4692 0.171124 15.1729 0.202901 14.4085 0.457122C12.3311 1.17212 11.0182 3.01522 11.1678 5.03309Z" fill="white"/>
</svg>
